<svg width="26" height="26" viewBox="0 0 26 26" fill="none" xmlns="http://www.w3.org/2000/svg">
<path d="M13 0C10.4288 0 7.91543 0.762437 5.77759 2.1909C3.63975 3.61935 1.97351 5.64968 0.989572 8.02512C0.0056327 10.4006 -0.251811 13.0144 0.249797 15.5362C0.751405 18.0579 1.98953 20.3743 3.80762 22.1924C5.6257 24.0105 7.94208 25.2486 10.4638 25.7502C12.9856 26.2518 15.5995 25.9944 17.9749 25.0104C20.3503 24.0265 22.3807 22.3603 23.8091 20.2224C25.2376 18.0846 26 15.5712 26 13C25.9964 9.5533 24.6256 6.24882 22.1884 3.81163C19.7512 1.37445 16.4467 0.00363977 13 0ZM13 24C10.8244 24 8.69767 23.3549 6.88873 22.1462C5.07979 20.9375 3.66989 19.2195 2.83733 17.2095C2.00477 15.1995 1.78693 12.9878 2.21137 10.854C2.63581 8.72022 3.68345 6.7602 5.22183 5.22183C6.76021 3.68345 8.72022 2.6358 10.854 2.21136C12.9878 1.78692 15.1995 2.00476 17.2095 2.83733C19.2195 3.66989 20.9375 5.07979 22.1462 6.88873C23.3549 8.69767 24 10.8244 24 13C23.9967 15.9164 22.8367 18.7123 20.7745 20.7745C18.7123 22.8367 15.9164 23.9967 13 24ZM21 13C21 14.5823 20.5308 16.129 19.6518 17.4446C18.7727 18.7602 17.5233 19.7855 16.0615 20.391C14.5997 20.9965 12.9911 21.155 11.4393 20.8463C9.88743 20.5376 8.46197 19.7757 7.34315 18.6569C6.22433 17.538 5.46241 16.1126 5.15372 14.5607C4.84504 13.0089 5.00347 11.4003 5.60897 9.93853C6.21447 8.47672 7.23985 7.22729 8.55544 6.34824C9.87104 5.46919 11.4178 5 13 5C15.121 5.00232 17.1545 5.84591 18.6543 7.3457C20.1541 8.84549 20.9977 10.879 21 13Z" fill="#343330"/>
</svg>

